HIERARCHY
ROOT Hips
{
    OFFSET 0.000000 0.000000 0.000000
    CHANNELS 6 Xposition Yposition Zposition Zrotation Xrotation Yrotation
    JOINT Spine
    {
        OFFSET -0.000000 8.359812 0.000000
        CHANNELS 3 Zrotation Xrotation Yrotation
        JOINT Spine1
        {
            OFFSET -0.000000 28.141317 0.000000
            CHANNELS 3 Zrotation Xrotation Yrotation
            JOINT Neck
            {
                OFFSET -0.000000 28.025745 2.547795
                CHANNELS 3 Zrotation Xrotation Yrotation
                JOINT Head
                {
                    OFFSET -0.000000 14.272848 -2.038978
                    CHANNELS 3 Zrotation Xrotation Yrotation
                    End Site
                    {
                        OFFSET -0.000000 25.487228 0.000000
                    }
                }
            }
            JOINT LeftShoulder
            {
                OFFSET 4.059574 26.120710 -0.180480
                CHANNELS 3 Zrotation Xrotation Yrotation
                JOINT LeftArm
                {
                    OFFSET 11.584161 0.000000 0.000000
                    CHANNELS 3 Zrotation Xrotation Yrotation
                    JOINT LeftForeArm
                    {
                        OFFSET 30.766815 0.000000 0.000000
                        CHANNELS 3 Zrotation Xrotation Yrotation
                        JOINT LeftHand
                        {
                            OFFSET 29.436810 0.000000 0.000000
                            CHANNELS 3 Zrotation Xrotation Yrotation
                            End Site
                            {
                                OFFSET 15.292337 0.000000 0.000000
                            }
                        }
                    }
                }
            }
            JOINT RightShoulder
            {
                OFFSET -4.095355 26.120710 -0.180480
                CHANNELS 3 Zrotation Xrotation Yrotation
                JOINT RightArm
                {
                    OFFSET -11.584161 0.000000 0.000000
                    CHANNELS 3 Zrotation Xrotation Yrotation
                    JOINT RightForeArm
                    {
                        OFFSET -30.766815 0.000000 0.000000
                        CHANNELS 3 Zrotation Xrotation Yrotation
                        JOINT RightHand
                        {
                            OFFSET -29.436810 0.000000 0.000000
                            CHANNELS 3 Zrotation Xrotation Yrotation
                            End Site
                            {
                                OFFSET -15.292337 0.000000 0.000000
                            }
                        }
                    }
                }
            }
        }
    }
    JOINT LeftUpLeg
    {
        OFFSET 10.194892 0.000000 0.000000
        CHANNELS 3 Zrotation Xrotation Yrotation
        JOINT LeftLeg
        {
            OFFSET -0.000000 -32.520012 0.000000
            CHANNELS 3 Zrotation Xrotation Yrotation
            JOINT LeftFoot
            {
                OFFSET -0.000000 -49.106510 0.000000
                CHANNELS 3 Zrotation Xrotation Yrotation
                JOINT LeftToeBase
                {
                    OFFSET -0.000000 -6.626679 15.292337
                    CHANNELS 3 Zrotation Xrotation Yrotation
                    End Site
                    {
                        OFFSET -0.000000 0.000000 4.077957
                    }
                }
            }
        }
    }
    JOINT RightUpLeg
    {
        OFFSET -10.194892 0.000000 0.000000
        CHANNELS 3 Zrotation Xrotation Yrotation
        JOINT RightLeg
        {
            OFFSET -0.000000 -32.520012 0.000000
            CHANNELS 3 Zrotation Xrotation Yrotation
            JOINT RightFoot
            {
                OFFSET -0.000000 -49.106510 0.000000
                CHANNELS 3 Zrotation Xrotation Yrotation
                JOINT RightToeBase
                {
                    OFFSET -0.000000 -6.626679 15.292337
                    CHANNELS 3 Zrotation Xrotation Yrotation
                    End Site
                    {
                        OFFSET -0.000000 0.000000 4.077957
                    }
                }
            }
        }
    }
}
MOTION
Frames:    10
Frame Time:    0.008333
107.779190    126.311829    32.862030    -3.025783    1.467834    74.565735    4.231307    -10.887562    0.276022    2.565986    12.496954    -0.408844    1.312264    30.796341    9.761045    -15.222227    14.625239    10.161060    10.330100    0.776716    4.202576    -87.906097    29.395954    24.189398    2.105605    -4.658733    -37.180466    -11.836260    -3.737867    -2.073961    -15.649637    2.180820    -2.176499    79.704666    61.496342    -0.907221    -3.987588    -9.206252    24.701168    11.276489    -8.568833    -2.316318    19.800838    -40.202389    5.216957    -34.535671    42.383278    23.840185    -18.720112    16.496752    31.672321    0.000000    0.000000    0.000000    0.138728    -10.964664    -0.289931    -3.118056    34.742702    6.972563    -6.751253    -22.431046    2.867036    0.000000    0.000000    0.000000    
108.279968    126.087914    32.830078    -2.763723    1.362022    74.321152    4.279270    -10.850827    0.275429    2.606672    12.648644    -0.420120    1.236533    30.867456    9.806665    -15.379866    14.511289    10.180882    10.480376    0.792627    4.201448    -87.689606    29.399162    24.485731    2.385614    -4.065964    -37.270412    -10.919764    -3.060481    -2.121302    -15.819790    2.084134    -2.150045    79.340576    61.570259    -0.923620    -4.060198    -9.300335    24.967203    10.898542    -8.601027    -2.010115    19.415190    -39.436569    5.161092    -32.895142    41.456398    22.328564    -20.095785    17.749153    32.417027    0.000000    0.000000    0.000000    0.016418    -11.282653    -0.173119    -3.068660    36.126122    6.697118    -6.661855    -22.573397    3.193758    0.000000    0.000000    0.000000    
108.823334    125.807953    32.794491    -2.429323    1.286019    74.093109    4.312050    -10.680614    0.178835    2.559021    12.612834    -0.507420    1.195671    31.160021    9.984385    -15.689879    14.290154    10.329011    10.476158    0.839210    4.251509    -87.251785    29.235167    24.947443    2.652176    -3.497609    -37.509506    -10.553706    -2.390119    -2.254264    -15.767582    2.094363    -1.948425    78.694626    61.585949    -0.821985    -4.183507    -9.338942    25.231382    10.731722    -8.574982    -1.743748    18.993139    -38.606823    4.954815    -31.509338    40.544987    20.792053    -21.454521    18.789776    33.311165    0.000000    0.000000    0.000000    -0.180718    -11.573998    -0.335060    -3.225957    37.627724    6.465614    -6.218103    -22.863607    3.920279    0.000000    0.000000    0.000000    
109.325577    125.509880    32.777519    -2.182354    1.180323    73.830025    4.084412    -10.432134    0.397280    2.968097    12.273661    -0.293213    1.647962    31.614679    9.677977    -15.861038    14.121731    10.055845    10.651077    0.821499    3.742974    -87.305305    29.165525    25.287815    3.027709    -3.001282    -37.377338    -9.964306    -1.772727    -2.353523    -15.782654    2.323643    -2.182616    78.407715    61.624775    -1.305794    -4.440492    -9.457023    25.726917    10.893238    -8.584661    -1.381118    18.645758    -37.866615    4.879134    -30.125099    39.648327    19.784351    -22.497847    20.002817    34.122231    0.000000    0.000000    0.000000    -0.277543    -11.998591    -0.399737    -3.419811    39.172440    6.192142    -5.832706    -23.121250    4.723094    0.000000    0.000000    0.000000    
109.851440    125.155510    32.776100    -1.923023    1.012246    73.571938    4.124451    -10.230473    0.308415    3.056978    12.070165    -0.384283    1.711770    32.176880    9.784270    -16.430716    13.724366    10.118009    10.610662    0.910756    3.647211    -87.026772    28.938677    25.851254    3.205478    -2.621859    -37.635113    -9.325981    -1.357382    -2.115814    -15.706177    2.456200    -1.989919    77.500061    61.442616    -1.005522    -4.500841    -9.409591    26.054062    10.716734    -8.501582    -1.312407    18.264921    -37.040482    4.866523    -28.565931    38.886425    18.618351    -23.943729    20.845652    34.844326    0.000000    0.000000    0.000000    -0.189264    -12.460411    -0.714790    -4.112701    40.795441    6.344286    -5.380878    -23.359936    5.613938    0.000000    0.000000    0.000000    
110.319092    124.773994    32.776760    -1.787465    0.831180    73.387825    4.191310    -10.203750    0.274016    3.109980    12.038560    -0.428421    1.868398    32.467091    9.795329    -16.746368    13.540896    10.125751    10.727227    0.894434    3.416872    -86.905991    28.824713    26.353897    3.503953    -2.328527    -37.782391    -9.246069    -0.942463    -2.313989    -15.681392    2.551836    -1.873303    76.868217    61.314548    -0.915766    -4.674338    -9.472508    26.485865    10.545620    -8.477908    -1.020341    18.007362    -36.413494    4.741273    -27.311859    38.070217    17.779388    -25.130135    21.963274    35.673264    0.000000    0.000000    0.000000    -0.138085    -13.045380    -0.643099    -4.192608    42.393803    6.154236    -5.260999    -23.498732    5.894171    0.000000    0.000000    0.000000    
110.855820    124.368774    32.783119    -1.543600    0.637499    73.194214    4.188440    -9.977528    0.131116    3.317443    11.660947    -0.573634    1.488658    33.205292    10.025378    -16.737659    13.116911    10.252940    10.395041    1.151688    3.310340    -86.308876    28.771973    26.714134    3.389530    -2.019204    -37.910717    -8.782651    -0.681570    -2.259272    -15.619973    2.716892    -1.504884    76.239128    60.957012    -0.987323    -4.827621    -9.409199    26.987474    10.315486    -8.361338    -1.096720    17.706259    -35.562454    4.629900    -26.082851    37.206108    16.781923    -26.467918    22.917839    36.627125    0.000000    0.000000    0.000000    -0.077887    -13.422668    -0.758774    -4.567536    43.916325    6.515005    -5.599305    -23.564571    5.633334    0.000000    0.000000    0.000000    
111.368263    123.929977    32.785137    -1.458586    0.431537    73.016479    4.304500    -9.914775    0.085884    3.376550    11.329103    -0.622940    1.535363    33.954399    10.061115    -17.001106    12.741562    10.245917    10.242645    1.254389    3.024333    -85.963783    28.557600    27.265097    3.497733    -1.827551    -38.072727    -8.814470    -0.437065    -2.379556    -15.451106    3.065573    -1.235730    75.432930    60.637600    -0.861592    -4.948390    -9.426370    27.478971    9.684036    -8.324277    -1.129212    17.480267    -34.846439    4.500394    -24.977947    36.289207    15.975580    -27.523584    23.886904    37.403721    0.000000    0.000000    0.000000    -0.084721    -13.827300    -0.516577    -4.335181    45.257950    6.473341    -5.677917    -23.821177    5.361019    0.000000    0.000000    0.000000    
111.905716    123.449310    32.816635    -1.360856    0.186383    72.805595    4.416966    -9.936013    0.031405    3.456253    11.221144    -0.692423    1.560149    34.496643    10.128922    -17.264343    12.435328    10.274901    10.277708    1.358557    2.889662    -85.952324    28.803743    27.902353    3.563621    -1.910147    -38.398613    -8.488632    -0.506466    -2.190193    -15.444515    3.094702    -1.080893    75.006691    60.257435    -0.996212    -5.170236    -9.220067    27.919483    9.763339    -8.032098    -0.995061    17.337427    -33.985924    4.136312    -24.060717    35.199425    15.297554    -28.316196    24.785759    37.778625    0.000000    0.000000    0.000000    0.098110    -14.114563    -0.653771    -4.790572    46.518291    6.860698    -5.767241    -24.321524    5.184520    0.000000    0.000000    0.000000    
112.484573    122.939003    32.825298    -1.179544    -0.023803    72.580482    4.477065    -9.848157    -0.016812    3.571128    10.995052    -0.746536    1.503215    35.072964    10.222408    -17.425331    12.258328    10.338730    10.159099    1.454233    2.632517    -85.881538    28.892361    28.589317    3.644400    -1.997423    -38.619534    -8.568510    -0.551993    -2.246507    -15.415809    3.318649    -0.940745    74.386177    60.087994    -1.009666    -5.327261    -9.273674    28.468840    9.649639    -8.005798    -0.834377    17.064539    -32.992619    3.889128    -23.040693    34.055580    14.607697    -29.087049    25.874876    38.136250    0.000000    0.000000    0.000000    0.070010    -14.172791    -0.655111    -4.855307    47.684006    7.035333    -5.974245    -25.156788    4.912586    0.000000    0.000000    0.000000    
